<?xml version="1.0" standalone="no"?>
<!DOCTYPE svg PUBLIC "-//W3C//DTD SVG 1.1//EN" "http://www.w3.org/Graphics/SVG/1.1/DTD/svg11.dtd" >
<svg xmlns="http://www.w3.org/2000/svg">
<metadata></metadata>
<defs>
<font id="victorregular" horiz-adv-x="1638" >
<font-face units-per-em="2048" ascent="1638" descent="-410" />
<missing-glyph horiz-adv-x="1024" />
<glyph horiz-adv-x="2048" />
<glyph horiz-adv-x="2048" />
<glyph unicode="&#xd;" horiz-adv-x="1024" />
<glyph unicode=" "  horiz-adv-x="1024" />
<glyph unicode="&#x09;" horiz-adv-x="1024" />
<glyph unicode="&#xa0;" horiz-adv-x="1024" />
<glyph unicode="!" horiz-adv-x="1083" d="M1001 197l13 1171l100 -2l-12 -1169h-101zM1012 0v96h82l6 -96h-88z" />
<glyph unicode="&#x22;" horiz-adv-x="770" d="M479 1221l39 235h60l-37 -235h-62zM727 1221l37 235h61l-37 -235h-61z" />
<glyph unicode="#" horiz-adv-x="2516" d="M473 881h365q18 41 47 143q25 94 49 141v-270h1044q10 29 43 158q25 98 56 151v-362q115 25 235 24q172 0 326 -49h-555v-330q135 -25 397 -98h-362q-20 -84 -41 -166q-25 -100 -58 -160v310h-1044q-8 -14 -45 -123q-31 -82 -56 -107v205q-141 49 -292 49q-35 0 -70 -4 q121 29 358 94v293q-59 20 -200 47q-129 27 -197 54zM950 463h1053v342h-1053v-342z" />
<glyph unicode="$" horiz-adv-x="2607" d="M496 813q139 258 440 416q291 152 594 143q6 6 45 82q31 63 51 66v-119q55 -25 184 -31q258 -14 306 -20q166 -25 282 -109q18 -12 19 -27q0 -8 -4.5 -23t-4.5 -24q0 -20 17 -30q-180 78 -510 159l-289 -30v-410h1102v-151q0 -223 -451 -383q-365 -131 -649 -134 q-6 -18 -6 -47q0 -35 8 -103.5t8 -103.5q0 -49 -7 -58t-48 -9q-12 0 -18 -10v309q-391 76 -617 188q332 -55 613 -86l4 500q-12 -16 -95 -16q-61 0 -522 16q-145 2 -436 14q-6 0 -8 23q0 8 -8 8zM612 848h938v446h-198q-145 0 -424 -155q-295 -164 -316 -291zM1636 276h275 q98 0 303 86q186 80 280 152q53 39 95 113q30 65 63 131h-1016v-482z" />
<glyph unicode="%" horiz-adv-x="2052" d="M635 1012v137q117 117 258 117q133 0 260 -119v-135q-119 -119 -260 -119q-133 0 -258 119zM709 307l1394 772q55 -51 92 -51zM709 1055l84 -86h200q86 86 86 135l-84 86h-202q-84 -84 -84 -135zM1604 193v137q117 117 258 116q133 0 260 -118v-135q-119 -119 -260 -119 q-133 0 -258 119zM1677 236l84 -86h201q84 86 86 135l-86 86h-201q-84 -84 -84 -135z" />
<glyph unicode="&#x26;" horiz-adv-x="1925" d="M512 414q0 127 219 260q164 90 330 178q-229 154 -328 299q344 86 621 86q221 0 512 -90q-221 -133 -623 -334q412 -293 805 -506q-125 -135 -322 -178q-123 -27 -372 -27q-219 0 -486 70q-356 92 -356 242zM586 371q182 -115 370 -158q160 -37 398 -37q231 0 583 88 q-199 147 -399 297q-328 236 -387 236q-78 0 -308.5 -174t-256.5 -252zM842 1071q6 -4 145 -96q102 -68 148 -68q59 0 254 105q129 71 256 143l-578 2q-53 0 -117 -29q-55 -29 -108 -57z" />
<glyph unicode="'" horiz-adv-x="675" d="M616 1272l43 174h64l-43 -174h-64z" />
<glyph unicode="(" horiz-adv-x="1413" d="M573 635q0 252 357 436q299 154 586 164q-47 -23 -127 -47q-109 -33 -129 -41q-604 -217 -605 -512q0 -311 607 -518q90 -20 251 -84q-940 154 -940 602z" />
<glyph unicode=")" horiz-adv-x="1406" d="M631 1184l172 20q172 0 409 -196q246 -205 246 -373q0 -156 -115 -270q-84 -84 -258 -168q-137 -68 -274 -134l-143 52q20 -8 51 -9q178 0 414 173q246 184 245 356q0 172 -291 364q-270 176 -456 185z" />
<glyph unicode="*" horiz-adv-x="1540" d="M477 827q164 -14 213 -14q106 0 178 25q-14 20 -90 80q-88 66 -104 81q2 -2 6 -2q10 0 25.5 11.5t23.5 11.5q20 0 109 -76q100 -84 120 -94q4 10 21 115q14 88 35 88q8 0 23.5 -6.5t21.5 -6.5q-4 -23 -4 -49q0 -72 35 -141q94 51 282 151q-2 -2 -2 -6q0 -10 24.5 -19 t24.5 -20q0 -14 -106 -65q-66 -29 -131 -60q31 -8 297 -8q110 0 110 -16q0 -8 -13 -23.5t-13 -23.5q0 -6 12 -12q-41 4 -88 4q-193 0 -346 -43q78 -78 237 -158q-12 0 -37.5 -8t-40.5 -8q-57 0 -215 159q-6 -14 -6 -37q0 -20 8.5 -62t8.5 -65q0 -33 -29 -32q-10 0 -26.5 3 t-26.5 3q-12 0 -19 -6q2 33 2 63q0 125 -36 172q-16 -8 -119 -90q-80 -61 -127 -61q-8 0 -51 6q-33 4 -52 -2q106 72 215 125q-53 18 -162.5 21t-158.5 20q-14 4 -17.5 37.5t-11.5 37.5z" />
<glyph unicode="+" />
<glyph unicode="," horiz-adv-x="776" d="M688 -143l2 340l135 6l6 -353z" />
<glyph unicode="-" horiz-adv-x="1630" d="M211 668l12 219l1346 -6l6 -236z" />
<glyph unicode="." horiz-adv-x="854" d="M750 0v121l159 6l6 -127h-165z" />
<glyph unicode="/" />
<glyph unicode="0" horiz-adv-x="2398" d="M41 573q0 324 467 506q356 141 745 142q385 0 746 -144q467 -185 467 -504q0 -332 -463 -512q-350 -137 -750 -137q-387 0 -745 142q-467 184 -467 507zM125 573q0 -285 442 -444q334 -121 686 -121q367 0 691 115q438 157 438 450q0 283 -443 443q-334 121 -686 121 q-367 0 -690 -115q-438 -156 -438 -449z" />
<glyph unicode="1" horiz-adv-x="1599" d="M524 901q55 53 210 133t220 80h232v-1083q397 -13 526 -13q-57 -2 -289 -20q-180 -14 -293 -14q-324 0 -497 94l20 2q33 0 96.5 -8.5t94.5 -8.5q96 0 266 37v918q-18 27 -23 26q-260 0 -563 -143z" />
<glyph unicode="2" horiz-adv-x="1875" d="M262 238q242 131 741.5 373.5t747.5 373.5q-106 43 -293 70q-168 25 -303 24q-270 0 -819 -137q250 125 397 166q172 47 422 47q254 0 363 -25q125 -29 344 -143q-403 -221 -1379 -670q53 -16 150 -20q74 -2 149 -4q260 -8 781 -25q115 -4 227 -8q170 -8 221 -22h-1749z " />
<glyph unicode="3" horiz-adv-x="2148" d="M299 887q240 141 395.5 185t421.5 44q344 0 666 -127q416 -163 416 -448q0 -291 -414 -453q-315 -125 -668 -125q-492 0 -741 195q485 -121 741 -121q332 0 588 90q342 119 420 371q-14 16 -51 22q-98 16 -287 19h-289h-938l1565 84q-166 256 -441 350q-205 70 -567 69 q-287 0 -446 -36q-63 -14 -185.5 -59.5t-185.5 -59.5z" />
<glyph unicode="4" horiz-adv-x="2095" d="M141 524q41 90 84 183q49 102 129 151q96 61 279 137q207 84 291 84h493l4 -475q80 12 224 12q92 0 275 -3t275 -3q13 0 13 -10q0 -6 -15.5 -24.5t-17.5 -28.5l12 -8l-760 -7v-501l-65 -6l-16 514zM248 602h1102v410h-426q-133 0 -387 -144q-268 -150 -289 -266z" />
<glyph unicode="5" horiz-adv-x="2109" d="M322 453v327q131 156 423 234q229 59 494 59q203 0 328 -39q115 -33 303 -145q-123 51 -328 84q-188 31 -342 31q-270 0 -428 -43q-188 -49 -387 -195v-219h1835q-51 -301 -395 -451q-268 -117 -625 -116q-84 0 -199 20q-123 23 -188 55q61 -10 164 -10q434 0 665 53 q403 90 515 355h-1835z" />
<glyph unicode="6" horiz-adv-x="2340" d="M231 672q0 315 662 555q178 63 207 63l186 -18l375 -39q-469 -16 -500 -21q-260 -23 -436 -110q-213 -106 -379 -338v-18.5v-18.5q0 -29 29 -59h2132q-82 -297 -455 -451q-299 -125 -661 -125q-285 0 -480 47q-238 55 -438 199q-66 45 -147 151q-94 121 -95 183zM389 586 q137 -211 447 -322q262 -94 555 -94q714 0 1003 416h-2005z" />
<glyph unicode="7" horiz-adv-x="2217" d="M70 834q156 168 505 278q313 100 576 100q340 0 674 -129q397 -153 520 -413q-301 -117 -834 -344q-582 -252 -829 -351l-41 72l1579 680q-236 399 -1069 399q-272 0 -565 -69q-350 -82 -516 -223z" />
<glyph unicode="8" horiz-adv-x="2826" d="M227 659q0 356 506 555q387 152 815 152q424 0 813 -154q506 -199 506 -553q0 -358 -504 -555q-383 -150 -815 -149q-422 0 -813 154q-508 201 -508 550zM322 580q139 -260 538 -410q334 -125 688 -125q379 0 688 115q375 141 537 420h-2451zM322 692h2451 q-135 299 -524 455q-317 127 -701 127q-410 0 -706 -117q-373 -147 -520 -465z" />
<glyph unicode="9" horiz-adv-x="2707" d="M260 645q145 369 520 545q315 150 756 149q393 0 762 -145q475 -188 475 -516q0 -150 -174 -313q-154 -143 -381 -248q-217 -100 -363 -101l-206 23l-412 43h141h142q436 0 678 98q305 127 493 465h-2431zM387 752h2253q-59 250 -465 391q-317 111 -639 110 q-367 0 -645 -104q-340 -127 -504 -397z" />
<glyph unicode=":" horiz-adv-x="958" d="M926 1171l6 76l94 -6l-6 -70h-94zM938 178v94q74 -4 78 -9t10 -79z" />
<glyph unicode=";" horiz-adv-x="841" d="M774 172l57 156h68l-57 -183zM795 1282v94l106 6v-106z" />
<glyph unicode="&#x3c;" />
<glyph unicode="=" />
<glyph unicode="&#x3e;" />
<glyph unicode="?" horiz-adv-x="2496" d="M242 1010q84 293 487 454q326 129 692 129q391 0 748 -141q465 -182 465 -506q0 -287 -291 -430q-76 -37 -541 -168q-293 -84 -295 -217q-37 102 -37 193q0 74 35 100q35 -33 66 -39q16 -4 80 -4q84 0 241 45q244 68 414 176q244 154 244 344q0 311 -432 459 q-301 104 -697 104q-371 0 -657 -106q-342 -127 -522 -393zM1415 0v68l146 6v-74h-146z" />
<glyph unicode="@" horiz-adv-x="2568" d="M293 698q0 324 465 506q356 141 747 142q881 0 1209 -560v-145q-279 -63 -836 -186q-317 -70 -373 -70q-221 0 -409 66q-260 92 -260 268t260 268q188 66 409 66q141 0 305 -35q201 -41 273 -111q61 -59 71 -137q4 -47 11 -96q12 -39 92 -39q109 0 336 153 q-70 156 -201 252q-197 143 -424 191q-158 31 -463 31q-379 0 -694 -111q-434 -152 -434 -453q0 -494 1136 -606q147 -10 326 -35h-651q-137 0 -350 101q-221 100 -373 239q-172 160 -172 301zM922 643q141 -121 317 -156q104 -20 354 -20q158 0 262 39q99 35 232 135v156 q-125 96 -227 133q-109 41 -258 41h-218q-135 0 -245 -43q-98 -39 -217 -131v-154z" />
<glyph unicode="A" horiz-adv-x="4247" d="M74 469q0 469 590 760q397 195 1005 287q328 49 524 49q246 0 598 -62q586 -102 969 -307q555 -299 555 -764q0 -190 -571 -762q23 37 133 187q246 334 301 589h-3965q80 -279 360 -698q-172 119 -321 318q-178 231 -178 403zM295 635h3797q-295 408 -850 612 q-471 172 -1049 172q-659 0 -1052 -149q-453 -172 -846 -635z" />
<glyph unicode="B" horiz-adv-x="3184" d="M231 59v1053q377 201 658 277q293 79 694 79h10q307 0 656 -82q424 -98 680 -276q313 -217 313 -524q0 -371 -422 -600q-291 -158 -752 -236q-283 -45 -475 -45q-418 0 -702 78q-236 66 -660 276zM348 115q336 -158 520 -215q262 -82 538 -82h13h174q477 2 863 145 q468 176 669 526h-2777v-374zM348 625h2777q-168 373 -653 567q-397 160 -879 162l-188 2h-13q-274 0 -532 -82q-205 -63 -512 -217v-432z" />
<glyph unicode="C" horiz-adv-x="2355" d="M190 614q0 381 558 586q416 152 884 152q264 0 436 -56q104 -35 406 -192q-168 70 -442 113q-246 40 -451 40h-10q-430 0 -789 -124q-496 -174 -495 -519q0 -356 489 -524q346 -119 795 -119q176 0 479 52q283 45 473 100q-291 -156 -463 -201t-489 -45q-440 0 -850 162 q-530 209 -531 575z" />
<glyph unicode="D" horiz-adv-x="2750" d="M332 254v911q78 4 256 76q211 86 268 100q258 63 588 64q434 0 831 -156q518 -203 518 -565q0 -367 -516 -569q-391 -152 -833 -152q-338 0 -574 66q-199 55 -538 225zM422 299q274 -129 428 -176q221 -68 453 -68h141q406 2 768 131q487 174 487 498q0 313 -491 492 q-371 135 -764 137h-154h-13q-224 0 -435 -66q-166 -51 -420 -178v-770z" />
<glyph unicode="E" horiz-adv-x="2439" d="M238 662q0 377 536 583q406 156 864 156q270 0 482 -58q199 -53 450 -190q-225 55 -581 109q-283 43 -369 43q-412 0 -750 -119q-442 -156 -538 -471q20 -18 65 -27q111 -18 312 -22h311q233 -3 718 -3q242 0 548 1l-1956 -109q236 -539 1464 -539q420 1 819 234 q-127 -182 -454 -264q-240 -61 -539 -62q-446 0 -852 160q-530 209 -530 578z" />
<glyph unicode="F" horiz-adv-x="2398" d="M238 614q0 373 538 582q410 156 862 156q270 0 482 -56q198 -55 450 -190q-240 59 -616 115q-247 36 -330 36h-4q-432 0 -721 -104q-365 -131 -565 -440q18 -20 65 -29q109 -18 306 -20h309h1034l-1718 -111q78 -287 471 -461q314 -142 624 -142q26 0 52 1l-215 -74 q-473 141 -644 234q-381 203 -380 503z" />
<glyph unicode="G" horiz-adv-x="2637" d="M737 1278q418 166 873 166q309 0 497 -43q279 -66 422 -242q-383 190 -704 191q-553 0 -932 -105q-600 -164 -600 -557q0 -401 594 -563q369 -100 936 -100q371 0 762 227q-18 20 -62 27q-94 18 -262 20h-266q-338 2 -946 2h1777q-514 -369 -1216 -369q-453 0 -873 166 q-542 213 -542 589q0 378 542 591z" />
<glyph unicode="H" horiz-adv-x="3020" d="M244 688q0 193 145 334q109 106 328 209q174 78 350 155q-41 -63 -201 -139q-209 -100 -286 -155q-166 -119 -242 -293h2640q-82 178 -293 313q-117 74 -391 193q285 -55 499 -195q279 -180 279 -422q0 -186 -150 -330q-109 -106 -331 -211q-172 -78 -344 -157 q63 59 250 160q207 111 294 186q145 123 189 287h-2646q4 -143 252 -342q238 -188 389 -201q-258 18 -481 182q-250 182 -250 426z" />
<glyph unicode="I" horiz-adv-x="2394" d="M385 221q131 -66 367 -151q281 -100 372 -101h250v1258q-25 33 -47 33q-199 0 -475 -68q-317 -78 -428 -182q279 207 496 276q207 66 557 66q618 0 1044 -297q-547 205 -694 205h-342v-1258q20 -33 71 -33h56q37 2 55 2q168 0 467 90q311 93 430 189q-164 -195 -502 -293 q-272 -80 -585 -80q-334 0 -577 76t-515 268z" />
<glyph unicode="J" horiz-adv-x="3006" d="M303 377q94 -31 268 -113t263 -112q311 -111 763 -111q455 0 830 131q520 180 520 543q0 160 -143 303q-74 74 -273 209q-158 104 -174 157q152 -80 301 -159q182 -98 271 -199q118 -135 118 -311q0 -336 -401 -541q-272 -137 -698 -201q-213 -32 -343 -32h-8 q-332 0 -686 110q-389 123 -608 326z" />
<glyph unicode="K" horiz-adv-x="2795" d="M299 639q0 182 150 326q111 104 333 213q168 80 338 161l228 -82q-16 2 -37 3q-197 0 -441 -119q-231 -113 -372 -267q399 51 1199 172t1199 173l-1897 -410q252 -186 836 -414q293 -113 584 -223q344 -131 575 -242q-604 221 -1208 445q-1009 364 -1111 364h-1 q-121 0 -277 -88v-143q0 -139 209 -275q141 -90 430 -202q313 -123 361 -150q-1098 199 -1098 758z" />
<glyph unicode="L" horiz-adv-x="2121" d="M504 100q35 1133 82 1168q-2 -119 -15 -381q-12 -248 -12 -381q0 -221 64 -309q78 -111 348 -140q100 -12 395 -12q152 0 457 51q284 48 450 97q-197 -141 -434 -195q-188 -43 -473 -43q-170 0 -436 45q-256 45 -426 100z" />
<glyph unicode="M" horiz-adv-x="3264" d="M262 561q0 141 88 268q47 66 172 185q102 96 119 147h182q203 -160 451 -327q360 -246 459 -246q92 0 440 297q264 223 424 385q156 -84 311 -168q188 -106 279 -215q121 -142 121 -326q0 -178 -160 -348t-338 -176q115 4 258 209q135 195 135 315q0 147 -190.5 350 t-333.5 203q-68 0 -473.5 -315.5t-472.5 -315.5q-70 0 -511.5 262.5t-512.5 262.5q-102 0 -197 -121q-68 -90 -115 -215q-31 -78 -30 -111q0 -270 366 -479q-168 18 -315 164q-156 152 -156 315z" />
<glyph unicode="N" horiz-adv-x="3278" d="M358 487q0 100 127 287q98 145 203 250l2052 -1075q172 66 318 209q168 166 168 329q0 176 -185 357q-162 137 -323 272q258 -133 393 -246q217 -184 217 -383q0 -215 -213 -395q-125 -104 -401 -246l-1973 1024q-280 -115 -280 -381q0 -145 145 -313q72 -80 260 -242 q-88 39 -182 113q-100 80 -199 199q-127 152 -127 241z" />
<glyph unicode="O" horiz-adv-x="3035" d="M201 715q0 387 555 606q428 168 893 168q264 0 573 -74q373 -88 598 -244q277 -192 277 -456q0 -330 -385 -531q-260 -139 -674 -204q-240 -39 -389 -39q-463 0 -893 170q-555 219 -555 604zM299 715q0 -336 530 -529q401 -145 820 -145q432 0 823 139q524 187 524 535 q0 342 -526 530q-397 143 -821 144q-440 0 -826 -138q-524 -184 -524 -536z" />
<glyph unicode="P" horiz-adv-x="3379" d="M233 498q0 311 324 536q264 182 703 285q360 86 671 86q539 0 1018 -211q592 -260 672 -715l-3275 -57q45 -135 225 -307q145 -139 306 -240h-15h-11q-196 0 -404 207q-214 213 -214 416zM354 598h3093q-82 342 -639 537q-431 153 -871 153h-6q-494 0 -884 -147 q-475 -178 -693 -543z" />
<glyph unicode="Q" horiz-adv-x="2906" d="M279 592q0 356 520 561q401 160 829 160q426 0 830 -162q522 -207 522 -559q0 -137 -150 -303q-129 -143 -270 -213q59 -68 182 -197q-72 43 -141 86q-86 45 -158 45q-37 0 -159 -22q-139 -29 -418 -82q-188 -37 -238 -37q-430 0 -831 160q-518 205 -518 563zM373 592 q0 -326 489 -500q362 -129 766 -129q195 0 746 109q-70 66 -86 82q-51 57 -60 96q31 4 56 4q66 0 101.5 -52t104.5 -52q106 0 251 165.5t145 276.5q0 313 -492 491q-375 135 -766 136q-408 0 -768 -127q-487 -174 -487 -500z" />
<glyph unicode="R" horiz-adv-x="2725" d="M311 141v1088q264 76 668 149q326 59 420 60q1053 0 1444 -668v-217h-1545q672 -274 996 -502q-266 133 -649 305q-530 236 -627 236h-580q-8 -31 -53 -230q-31 -141 -74 -221zM406 698h2336q-145 330 -573 500q-348 141 -770 141q-227 0 -504 -67q-113 -27 -489 -144 v-430z" />
<glyph unicode="S" horiz-adv-x="3033" d="M262 668q0 410 584 639q446 174 940 174q141 0 319 -31q188 -33 310 -82q-131 20 -281 21q-57 0 -171 -6.5t-171 -6.5q-453 0 -803 -125q-438 -158 -624 -485v-213h2885q-45 -219 -354 -412q-219 -135 -518 -233q-168 -55 -197 -55q-59 0 -127 10q-117 16 -127 16 l-510 53q328 10 657.5 23t542.5 100q272 115 537 412h-2824q-45 45 -58 90q-10 35 -10 111z" />
<glyph unicode="T" horiz-adv-x="2633" d="M225 965q442 479 1286 479q350 0 721 -129q441 -154 588 -402q-352 219 -459 275q-307 162 -489 162h-316v-1418l-92 1379q-31 37 -78 37q-313 0 -606 -105q-240 -86 -555 -278z" />
<glyph unicode="U" horiz-adv-x="3239" d="M438 639q0 92 103 229q92 123 182 179q-57 -100 -115 -199q-72 -135 -71 -209q0 -365 503 -537q349 -122 806 -122h7q401 0 799 145q518 188 518 514q0 88 -88 219q-68 100 -153 184q92 -37 211 -172q127 -143 127 -231q0 -317 -369 -516q-252 -133 -651 -201 q-244 -39 -394 -39q-453 0 -872 166q-543 215 -543 590z" />
<glyph unicode="V" horiz-adv-x="3137" d="M211 877q0 35 31 110q57 139 147 240q117 131 238 131q14 0 28 -2q-340 -221 -340 -479q0 -391 541 -578q381 -131 877 -131q246 0 546 65q369 82 594 224q276 178 277 420q0 96 -92 235q-74 111 -166 199q96 -37 227 -185q137 -155 137 -249q0 -440 -770 -697 q-102 -25 -301 -84q-41 -14 -211 -110q-137 -80 -215 -80q-76 0 -243 76q-119 59 -240 116q-70 33 -182 66q-94 29 -187 55q-307 102 -467 223q-229 176 -229 435z" />
<glyph unicode="W" horiz-adv-x="3594" d="M342 643q0 147 181.5 357t326.5 223q-123 -123 -238 -275q-158 -209 -157 -305q0 -328 534 -598q193 256 438 672q383 651 408 690h201q289 -465 551 -836q250 -356 407 -526q190 72 348 231q184 186 185 367q0 162 -175.5 358.5t-336.5 206.5q31 10 65 11 q186 0 373.5 -195t187.5 -381q0 -217 -233 -430q-168 -152 -428 -281q-549 662 -1020 1364q-229 -262 -481 -659q-123 -195 -416 -705q-721 272 -721 711z" />
<glyph unicode="X" horiz-adv-x="2924" d="M311 829q45 145 246 263q147 86 404 168l368 106q-6 -2 -360 -178q-217 -106 -355 -189q872 -436 1000 -436q139 0 946 539q-88 66 -223 125l-238 94h234q109 0 381 -176q186 -121 356 -258q-61 2 -193 78l-188 110q-152 -100 -474.5 -267t-473.5 -269q242 -123 483 -248 q379 -188 465 -189q53 0 162 58q139 74 168 82q-190 -147 -686 -396l-234 82q141 0 410 101q-139 113 -434 262q-330 170 -461 170q-94 0 -744 -391q57 -109 359 -213h-182q-80 0 -291 116q-154 86 -279 172v109q82 -88 103 -104q61 -47 137 -48q84 0 358 162 q180 113 359 223q-139 113 -435 265q-330 170 -460 170q-74 0 -136 -43q-70 -45 -92 -50z" />
<glyph unicode="Y" horiz-adv-x="2861" d="M240 666v20q0 162 268 350q207 145 420 219q-27 -27 -209 -157q-231 -164 -348 -310h2427q-72 217 -609 439q272 -53 477 -187q267 -172 267 -403q0 -301 -350 -490q-242 -129 -621 -192q-233 -39 -379 -39q-213 0 -418 102q72 -20 166 -20q41 0 123 6t123 6 q393 0 719 109q426 143 545 430v21.5v23.5q0 37 -33 72h-2568z" />
<glyph unicode="Z" horiz-adv-x="1826" d="M260 1008q219 182 416 241q164 47 475 47q287 0 768 -145q-463 -324 -1450 -983q293 -111 901 -111q162 0 303 43q109 35 285 123q-129 -156 -371 -211q-162 -39 -436 -39q-575 0 -852 215q584 346 752 449q424 254 741 467q-227 110 -807 110h-10q-367 0 -715 -206z" />
<glyph unicode="[" />
<glyph unicode="\" />
<glyph unicode="]" />
<glyph unicode="^" horiz-adv-x="1355" d="M795 1014q106 158 327 467q78 -117 154 -232q92 -133 178 -213q-174 88 -334 326q-106 -117 -325 -348z" />
<glyph unicode="_" />
<glyph unicode="`" />
<glyph unicode="a" horiz-adv-x="4239" d="M74 469q0 469 590 760q397 195 1005 287q328 49 524 49q246 0 598 -62q586 -102 969 -307q555 -299 555 -764q0 -190 -571 -762q23 37 133 187q246 334 301 589h-3965q80 -279 360 -698q-172 119 -321 318q-178 231 -178 403zM295 635h3797q-295 408 -850 612 q-471 172 -1049 172q-659 0 -1052 -149q-453 -172 -846 -635z" />
<glyph unicode="b" horiz-adv-x="3184" d="M231 59v1053q377 201 658 277q293 79 694 79h10q307 0 656 -82q424 -98 680 -276q313 -217 313 -524q0 -371 -422 -600q-291 -158 -752 -236q-283 -45 -475 -45q-418 0 -702 78q-236 66 -660 276zM348 115q336 -158 520 -215q262 -82 538 -82h13h174q477 2 863 145 q468 176 669 526h-2777v-374zM348 625h2777q-168 373 -653 567q-397 160 -879 162l-188 2h-13q-274 0 -532 -82q-205 -63 -512 -217v-432z" />
<glyph unicode="c" horiz-adv-x="2355" d="M190 614q0 381 558 586q416 152 884 152q264 0 436 -56q104 -35 406 -192q-168 70 -442 113q-246 40 -451 40h-10q-430 0 -789 -124q-496 -174 -495 -519q0 -356 489 -524q346 -119 795 -119q176 0 479 52q283 45 473 100q-291 -156 -463 -201t-489 -45q-440 0 -850 162 q-530 209 -531 575z" />
<glyph unicode="d" horiz-adv-x="2750" d="M332 254v911q78 4 256 76q211 86 268 100q258 63 588 64q434 0 831 -156q518 -203 518 -565q0 -367 -516 -569q-391 -152 -833 -152q-338 0 -574 66q-199 55 -538 225zM422 299q274 -129 428 -176q221 -68 453 -68h141q406 2 768 131q487 174 487 498q0 313 -491 492 q-371 135 -764 137h-154h-13q-224 0 -435 -66q-166 -51 -420 -178v-770z" />
<glyph unicode="e" horiz-adv-x="2439" d="M238 662q0 377 536 583q406 156 864 156q270 0 482 -58q199 -53 450 -190q-225 55 -581 109q-283 43 -369 43q-412 0 -750 -119q-442 -156 -538 -471q20 -18 65 -27q111 -18 312 -22h311q233 -3 718 -3q242 0 548 1l-1956 -109q236 -539 1464 -539q420 1 819 234 q-127 -182 -454 -264q-240 -61 -539 -62q-446 0 -852 160q-530 209 -530 578z" />
<glyph unicode="f" horiz-adv-x="2398" d="M238 614q0 373 538 582q410 156 862 156q270 0 482 -56q198 -55 450 -190q-240 59 -616 115q-247 36 -330 36h-4q-432 0 -721 -104q-365 -131 -565 -440q18 -20 65 -29q109 -18 306 -20h309h1034l-1718 -111q78 -287 471 -461q314 -142 624 -142q26 0 52 1l-215 -74 q-473 141 -644 234q-381 203 -380 503z" />
<glyph unicode="g" horiz-adv-x="2637" d="M737 1278q418 166 873 166q309 0 497 -43q279 -66 422 -242q-383 190 -704 191q-553 0 -932 -105q-600 -164 -600 -557q0 -401 594 -563q369 -100 936 -100q371 0 762 227q-18 20 -62 27q-94 18 -262 20h-266q-338 2 -946 2h1777q-514 -369 -1216 -369q-453 0 -873 166 q-542 213 -542 589q0 378 542 591z" />
<glyph unicode="h" horiz-adv-x="3020" d="M244 688q0 193 145 334q109 106 328 209q174 78 350 155q-41 -63 -201 -139q-209 -100 -286 -155q-166 -119 -242 -293h2640q-82 178 -293 313q-117 74 -391 193q285 -55 499 -195q279 -180 279 -422q0 -186 -150 -330q-109 -106 -331 -211q-172 -78 -344 -157 q63 59 250 160q207 111 294 186q145 123 189 287h-2646q4 -143 252 -342q238 -188 389 -201q-258 18 -481 182q-250 182 -250 426z" />
<glyph unicode="i" horiz-adv-x="2394" d="M385 221q131 -66 367 -151q281 -100 372 -101h250v1258q-25 33 -47 33q-199 0 -475 -68q-317 -78 -428 -182q279 207 496 276q207 66 557 66q618 0 1044 -297q-547 205 -694 205h-342v-1258q20 -33 71 -33h56q37 2 55 2q168 0 467 90q311 93 430 189q-164 -195 -502 -293 q-272 -80 -585 -80q-334 0 -577 76t-515 268z" />
<glyph unicode="j" horiz-adv-x="2985" d="M303 377q94 -31 268 -113t263 -112q311 -111 763 -111q455 0 830 131q520 180 520 543q0 160 -143 303q-74 74 -273 209q-158 104 -174 157q152 -80 301 -159q182 -98 271 -199q118 -135 118 -311q0 -336 -401 -541q-272 -137 -698 -201q-213 -32 -343 -32h-8 q-332 0 -686 110q-389 123 -608 326z" />
<glyph unicode="k" horiz-adv-x="2795" d="M299 639q0 182 150 326q111 104 333 213q168 80 338 161l228 -82q-16 2 -37 3q-197 0 -441 -119q-231 -113 -372 -267q399 51 1199 172t1199 173l-1897 -410q252 -186 836 -414q293 -113 584 -223q344 -131 575 -242q-604 221 -1208 445q-1009 364 -1111 364h-1 q-121 0 -277 -88v-143q0 -139 209 -275q141 -90 430 -202q313 -123 361 -150q-1098 199 -1098 758z" />
<glyph unicode="l" horiz-adv-x="2121" d="M504 100q35 1133 82 1168q-2 -119 -15 -381q-12 -248 -12 -381q0 -221 64 -309q78 -111 348 -140q100 -12 395 -12q152 0 457 51q284 48 450 97q-197 -141 -434 -195q-188 -43 -473 -43q-170 0 -436 45q-256 45 -426 100z" />
<glyph unicode="m" horiz-adv-x="3264" d="M262 561q0 141 88 268q47 66 172 185q102 96 119 147h182q203 -160 451 -327q360 -246 459 -246q92 0 440 297q264 223 424 385q156 -84 311 -168q188 -106 279 -215q121 -142 121 -326q0 -178 -160 -348t-338 -176q115 4 258 209q135 195 135 315q0 147 -190.5 350 t-333.5 203q-68 0 -473.5 -315.5t-472.5 -315.5q-70 0 -511.5 262.5t-512.5 262.5q-102 0 -197 -121q-68 -90 -115 -215q-31 -78 -30 -111q0 -270 366 -479q-168 18 -315 164q-156 152 -156 315z" />
<glyph unicode="n" horiz-adv-x="3278" d="M358 487q0 100 127 287q98 145 203 250l2052 -1075q172 66 318 209q168 166 168 329q0 176 -185 357q-162 137 -323 272q258 -133 393 -246q217 -184 217 -383q0 -215 -213 -395q-125 -104 -401 -246l-1973 1024q-280 -115 -280 -381q0 -145 145 -313q72 -80 260 -242 q-88 39 -182 113q-100 80 -199 199q-127 152 -127 241z" />
<glyph unicode="o" horiz-adv-x="3035" d="M201 715q0 387 555 606q428 168 893 168q264 0 573 -74q373 -88 598 -244q277 -192 277 -456q0 -330 -385 -531q-260 -139 -674 -204q-240 -39 -389 -39q-463 0 -893 170q-555 219 -555 604zM299 715q0 -336 530 -529q401 -145 820 -145q432 0 823 139q524 187 524 535 q0 342 -526 530q-397 143 -821 144q-440 0 -826 -138q-524 -184 -524 -536z" />
<glyph unicode="p" horiz-adv-x="3379" d="M233 498q0 311 324 536q264 182 703 285q360 86 671 86q539 0 1018 -211q592 -260 672 -715l-3275 -57q45 -135 225 -307q145 -139 306 -240h-15h-11q-196 0 -404 207q-214 213 -214 416zM354 598h3093q-82 342 -639 537q-431 153 -871 153h-6q-494 0 -884 -147 q-475 -178 -693 -543z" />
<glyph unicode="q" horiz-adv-x="2906" d="M279 592q0 356 520 561q401 160 829 160q426 0 830 -162q522 -207 522 -559q0 -137 -150 -303q-129 -143 -270 -213q59 -68 182 -197q-72 43 -141 86q-86 45 -158 45q-37 0 -159 -22q-139 -29 -418 -82q-188 -37 -238 -37q-430 0 -831 160q-518 205 -518 563zM373 592 q0 -326 489 -500q362 -129 766 -129q195 0 746 109q-70 66 -86 82q-51 57 -60 96q31 4 56 4q66 0 101.5 -52t104.5 -52q106 0 251 165.5t145 276.5q0 313 -492 491q-375 135 -766 136q-408 0 -768 -127q-487 -174 -487 -500z" />
<glyph unicode="r" horiz-adv-x="2725" d="M311 141v1088q264 76 668 149q326 59 420 60q1053 0 1444 -668v-217h-1545q672 -274 996 -502q-266 133 -649 305q-530 236 -627 236h-580q-8 -31 -53 -230q-31 -141 -74 -221zM406 698h2336q-145 330 -573 500q-348 141 -770 141q-227 0 -504 -67q-113 -27 -489 -144 v-430z" />
<glyph unicode="s" horiz-adv-x="3033" d="M262 668q0 410 584 639q446 174 940 174q141 0 319 -31q188 -33 310 -82q-131 20 -281 21q-57 0 -171 -6.5t-171 -6.5q-453 0 -803 -125q-438 -158 -624 -485v-213h2885q-45 -219 -354 -412q-219 -135 -518 -233q-168 -55 -197 -55q-59 0 -127 10q-117 16 -127 16 l-510 53q328 10 657.5 23t542.5 100q272 115 537 412h-2824q-45 45 -58 90q-10 35 -10 111z" />
<glyph unicode="t" horiz-adv-x="2633" d="M225 965q442 479 1286 479q350 0 721 -129q441 -154 588 -402q-352 219 -459 275q-307 162 -489 162h-316v-1418l-92 1379q-31 37 -78 37q-313 0 -606 -105q-240 -86 -555 -278z" />
<glyph unicode="u" horiz-adv-x="3239" d="M438 639q0 92 103 229q92 123 182 179q-57 -100 -115 -199q-72 -135 -71 -209q0 -365 503 -537q349 -122 806 -122h7q401 0 799 145q518 188 518 514q0 88 -88 219q-68 100 -153 184q92 -37 211 -172q127 -143 127 -231q0 -317 -369 -516q-252 -133 -651 -201 q-244 -39 -394 -39q-453 0 -872 166q-543 215 -543 590z" />
<glyph unicode="v" horiz-adv-x="3137" d="M211 877q0 35 31 110q57 139 147 240q117 131 238 131q14 0 28 -2q-340 -221 -340 -479q0 -391 541 -578q381 -131 877 -131q246 0 546 65q369 82 594 224q276 178 277 420q0 96 -92 235q-74 111 -166 199q96 -37 227 -185q137 -155 137 -249q0 -440 -770 -697 q-102 -25 -301 -84q-41 -14 -211 -110q-137 -80 -215 -80q-76 0 -243 76q-119 59 -240 116q-70 33 -182 66q-94 29 -187 55q-307 102 -467 223q-229 176 -229 435z" />
<glyph unicode="w" horiz-adv-x="3594" d="M342 643q0 147 181.5 357t326.5 223q-123 -123 -238 -275q-158 -209 -157 -305q0 -328 534 -598q193 256 438 672q383 651 408 690h201q289 -465 551 -836q250 -356 407 -526q190 72 348 231q184 186 185 367q0 162 -175.5 358.5t-336.5 206.5q31 10 65 11 q186 0 373.5 -195t187.5 -381q0 -217 -233 -430q-168 -152 -428 -281q-549 662 -1020 1364q-229 -262 -481 -659q-123 -195 -416 -705q-721 272 -721 711z" />
<glyph unicode="x" horiz-adv-x="2924" d="M311 829q45 145 246 263q147 86 404 168l368 106q-6 -2 -360 -178q-217 -106 -355 -189q872 -436 1000 -436q139 0 946 539q-88 66 -223 125l-238 94h234q109 0 381 -176q186 -121 356 -258q-61 2 -193 78l-188 110q-152 -100 -474.5 -267t-473.5 -269q242 -123 483 -248 q379 -188 465 -189q53 0 162 58q139 74 168 82q-190 -147 -686 -396l-234 82q141 0 410 101q-139 113 -434 262q-330 170 -461 170q-94 0 -744 -391q57 -109 359 -213h-182q-80 0 -291 116q-154 86 -279 172v109q82 -88 103 -104q61 -47 137 -48q84 0 358 162 q180 113 359 223q-139 113 -435 265q-330 170 -460 170q-74 0 -136 -43q-70 -45 -92 -50z" />
<glyph unicode="y" horiz-adv-x="2861" d="M240 666v20q0 162 268 350q207 145 420 219q-27 -27 -209 -157q-231 -164 -348 -310h2427q-72 217 -609 439q272 -53 477 -187q267 -172 267 -403q0 -301 -350 -490q-242 -129 -621 -192q-233 -39 -379 -39q-213 0 -418 102q72 -20 166 -20q41 0 123 6t123 6 q393 0 719 109q426 143 545 430v21.5v23.5q0 37 -33 72h-2568z" />
<glyph unicode="z" horiz-adv-x="1826" d="M260 1008q219 182 416 241q164 47 475 47q287 0 768 -145q-463 -324 -1450 -983q293 -111 901 -111q162 0 303 43q109 35 285 123q-129 -156 -371 -211q-162 -39 -436 -39q-575 0 -852 215q584 346 752 449q424 254 741 467q-227 110 -807 110h-10q-367 0 -715 -206z" />
<glyph unicode="{" />
<glyph unicode="|" />
<glyph unicode="}" />
<glyph unicode="~" />
<glyph unicode="&#xad;" horiz-adv-x="1630" d="M211 668l12 219l1346 -6l6 -236z" />
<glyph unicode="&#x2000;" horiz-adv-x="796" />
<glyph unicode="&#x2001;" horiz-adv-x="1593" />
<glyph unicode="&#x2002;" horiz-adv-x="796" />
<glyph unicode="&#x2003;" horiz-adv-x="1593" />
<glyph unicode="&#x2004;" horiz-adv-x="531" />
<glyph unicode="&#x2005;" horiz-adv-x="398" />
<glyph unicode="&#x2006;" horiz-adv-x="265" />
<glyph unicode="&#x2007;" horiz-adv-x="265" />
<glyph unicode="&#x2008;" horiz-adv-x="199" />
<glyph unicode="&#x2009;" horiz-adv-x="318" />
<glyph unicode="&#x200a;" horiz-adv-x="88" />
<glyph unicode="&#x2010;" horiz-adv-x="1630" d="M211 668l12 219l1346 -6l6 -236z" />
<glyph unicode="&#x2011;" horiz-adv-x="1630" d="M211 668l12 219l1346 -6l6 -236z" />
<glyph unicode="&#x2012;" horiz-adv-x="1630" d="M211 668l12 219l1346 -6l6 -236z" />
<glyph unicode="&#x2013;" horiz-adv-x="1290" d="M211 668l9 219l1010 -6l5 -236z" />
<glyph unicode="&#x2014;" horiz-adv-x="2314" d="M211 668l18 219l2021 -6l9 -236z" />
<glyph unicode="&#x202f;" horiz-adv-x="318" />
<glyph unicode="&#x205f;" horiz-adv-x="398" />
<glyph unicode="&#xe000;" horiz-adv-x="1361" d="M0 0v1362h1362v-1362h-1362z" />
</font>
</defs>
</svg>
